0
SECTION
2
HEADER
9
$ACADVER
1
AC1032
9
$HANDSEED
5
1
9
$DWGCODEPAGE
3
UTF-8
9
$INSUNITS
70
4
9
$LUNITS
70
2
9
$LUPREC
70
4
9
$UNITMODE
70
0
9
$MEASUREMENT
70
1
9
$LTSCALE
40
1
9
$LWDISPLAY
70
0
9
$CELTSCALE
40
1
9
$CELWEIGHT
370
-1
9
$CECOLOR
62
256
9
$TILEMODE
70
1
9
$PSLTSCALE
70
1
9
$CLAYER
8
0
9
$CELTYPE
6
ByLayer
9
$CETRANSPARENCY
440
255
9
$CMLSTYLE
2
Standard
9
$CMLSCALE
40
1
9
$CMLEADERSTYLE
2
Standard
9
$HPCOLOR
2
256
9
$HPLAYER
8
.
9
$HPTRANSPARENCY
440
255
9
$TEXTSTYLE
7
Standard
9
$DIMSTYLE
2
Standard
9
$ANGBASE
50
0
9
$ANGDIR
70
0
9
$AUNITS
70
0
9
$AUPREC
70
0
9
$EXTMIN
9
$EXTMAX
9
$PDMODE
70
0
9
$PDSIZE
40
0
9
$OSMODE
70
0
9
$ORTHOMODE
70
0
0
ENDSEC
0
SECTION
2
TABLES
0
TABLE
2
VPORT
5
9
330
0
100
AcDbSymbolTable
70
1
0
VPORT
5
1C
330
9
100
AcDbSymbolTableRecord
100
AcDbViewportTableRecord
2
*Active
40
1000
45
1000
10
0
20
0
11
1
21
1
12
0
22
0
13
0
23
0
14
0
24
0
15
0
25
0
70
0
71
100
42
500
16
0
26
0
36
1
17
0
27
0
37
0
50
0
51
0
61
10
146
0
170
0
282
0
292
0
281
0
0
ENDTAB
0
TABLE
2
VIEW
5
7
330
0
100
AcDbSymbolTable
70
0
0
ENDTAB
0
TABLE
2
UCS
5
6
330
0
100
AcDbSymbolTable
70
0
0
ENDTAB
0
TABLE
2
LTYPE
5
4
330
0
100
AcDbSymbolTable
70
3
0
LTYPE
5
18
330
4
100
AcDbSymbolTableRecord
100
AcDbLinetypeTableRecord
2
ByBlock
70
0
72
65
73
0
40
0
0
LTYPE
5
19
330
4
100
AcDbSymbolTableRecord
100
AcDbLinetypeTableRecord
2
ByLayer
70
0
72
65
73
0
40
0
0
LTYPE
5
1A
330
4
100
AcDbSymbolTableRecord
100
AcDbLinetypeTableRecord
2
Continuous
70
0
3
Solid line
72
65
73
0
40
0
0
ENDTAB
0
TABLE
2
LAYER
5
8
330
0
100
AcDbSymbolTable
70
1
0
LAYER
5
15
330
8
100
AcDbSymbolTableRecord
100
AcDbLayerTableRecord
2
0
70
0
62
7
6
Continuous
290
1
370
1
440
255
0
ENDTAB
0
TABLE
2
STYLE
5
5
330
0
100
AcDbSymbolTable
70
1
0
STYLE
5
16
330
5
100
AcDbSymbolTableRecord
100
AcDbTextStyleTableRecord
2
Standard
70
0
40
0
41
1
50
0
71
0
42
0.2
3
SimKai
0
ENDTAB
0
TABLE
2
APPID
5
1
330
0
100
AcDbSymbolTable
70
2
0
APPID
5
20
330
1
100
AcDbSymbolTableRecord
100
AcDbRegAppTableRecord
2
ACAD
70
0
0
APPID
5
21
330
1
100
AcDbSymbolTableRecord
100
AcDbRegAppTableRecord
2
mlightcad
70
0
0
ENDTAB
0
TABLE
2
DIMSTYLE
5
3
330
0
100
AcDbSymbolTable
70
1
0
DIMSTYLE
105
1B
330
3
100
AcDbSymbolTableRecord
100
AcDbDimStyleTableRecord
2
Standard
70
0
40
1
41
2.5
42
0.625
43
0.38
44
0.18
140
2.5
147
1
170
0
171
0
172
0
173
0
174
0
340
16
371
-2
372
-2
0
ENDTAB
0
TABLE
2
BLOCK_RECORD
5
2
330
0
100
AcDbSymbolTable
70
1
0
BLOCK_RECORD
5
17
330
2
100
AcDbSymbolTableRecord
100
AcDbBlockTableRecord
2
*Model_Space
70
0
280
1
281
1
340
1F
0
ENDTAB
0
ENDSEC
0
SECTION
2
BLOCKS
0
BLOCK
5
23
330
17
100
AcDbEntity
8
0
100
AcDbBlockBegin
2
*Model_Space
70
0
10
0
20
0
30
0
3
*Model_Space
0
ENDBLK
5
24
330
17
100
AcDbEntity
100
AcDbBlockEnd
0
ENDSEC
0
SECTION
2
ENTITIES
0
MTEXT
5
22
330
17
100
AcDbEntity
8
0
6
ByLayer
48
1
60
0
62
256
370
-1
440
255
100
AcDbMText
10
-543.911439
20
118.388684
30
0
40
56.826568
41
198.892989
1
{\A1;\c0;\fSimKai|b0|i0;\H56.82656826568262;你好}
7
Standard
50
0
11
1
21
0
31
0
71
1
72
1
73
0
44
0.3
210
0
220
0
230
1
0
ENDSEC
0
SECTION
2
OBJECTS
0
DICTIONARY
5
A
330
0
100
AcDbDictionary
280
1
281
1
3
ACAD_LAYOUT
350
25
3
ACAD_MLEADERSTYLE
350
26
3
ACAD_MLINESTYLE
350
27
0
DICTIONARY
5
25
330
A
100
AcDbDictionary
280
1
281
1
3
Model
350
1F
0
DICTIONARY
5
26
330
A
100
AcDbDictionary
280
1
281
1
3
Standard
350
1E
0
DICTIONARY
5
27
330
A
100
AcDbDictionary
280
1
281
1
3
Standard
350
1D
0
LAYOUT
5
1F
330
F
100
AcDbPlotSettings
40
0
41
0
42
0
43
0
44
0
45
0
46
0
47
0
142
1
143
1
70
178
72
1
73
0
74
5
75
0
76
0
77
2
78
300
147
0
148
0
149
0
100
AcDbLayout
1
Model
70
0
71
0
330
17
331
0
10
0
20
0
11
1000000
21
1000000
14
0
24
0
34
0
15
1000000
25
1000000
35
0
12
0
22
0
32
0
13
0
23
0
33
0
16
1
26
0
36
0
17
0
27
1
37
0
146
0
76
0
0
MLEADERSTYLE
5
1E
330
10
100
AcDbMLeaderStyle
179
2
170
2
171
1
172
0
90
2
40
0
41
0
173
1
91
-1056964608
340
18
92
-2
290
1
42
2
291
1
43
8
44
4
342
16
174
1
175
1
176
0
178
1
93
-1056964608
45
4
292
0
297
0
46
4
94
-1056964608
47
1
49
1
140
1
293
1
141
0
294
1
177
0
142
1
295
0
296
0
143
3.75
271
0
272
9
273
9
298
0
0
MLINESTYLE
5
1D
330
11
100
AcDbMlineStyle
2
Standard
70
0
62
256
51
90
52
90
71
2
49
0.5
62
256
6
ByLayer
49
-0.5
62
256
6
ByLayer
0
ENDSEC
0
EOF
